<svg width="458" height="24" viewBox="0 0 458 24" fill="none" xmlns="http://www.w3.org/2000/svg">
<path d="M1.40909 18V6.36364H2.81818V16.75H8.22727V18H1.40909ZM12.7955 18.2045C12.2424 18.2045 11.7405 18.1004 11.2898 17.892C10.839 17.6799 10.4811 17.375 10.2159 16.9773C9.95076 16.5758 9.81818 16.0909 9.81818 15.5227C9.81818 15.0227 9.91667 14.6174 10.1136 14.3068C10.3106 13.9924 10.5739 13.7462 10.9034 13.5682C11.233 13.3902 11.5966 13.2576 11.9943 13.1705C12.3958 13.0795 12.7992 13.0076 13.2045 12.9545C13.7348 12.8864 14.1648 12.8352 14.4943 12.8011C14.8277 12.7633 15.0701 12.7008 15.2216 12.6136C15.3769 12.5265 15.4545 12.375 15.4545 12.1591V12.1136C15.4545 11.553 15.3011 11.1174 14.9943 10.8068C14.6913 10.4962 14.2311 10.3409 13.6136 10.3409C12.9735 10.3409 12.4716 10.4811 12.108 10.7614C11.7443 11.0417 11.4886 11.3409 11.3409 11.6591L10.0682 11.2045C10.2955 10.6742 10.5985 10.2614 10.9773 9.96591C11.3598 9.66667 11.7765 9.45833 12.2273 9.34091C12.6818 9.2197 13.1288 9.15909 13.5682 9.15909C13.8485 9.15909 14.1705 9.19318 14.5341 9.26136C14.9015 9.32576 15.2557 9.46023 15.5966 9.66477C15.9413 9.86932 16.2273 10.178 16.4545 10.5909C16.6818 11.0038 16.7955 11.5568 16.7955 12.25V18H15.4545V16.8182H15.3864C15.2955 17.0076 15.1439 17.2102 14.9318 17.4261C14.7197 17.642 14.4375 17.8258 14.0852 17.9773C13.733 18.1288 13.303 18.2045 12.7955 18.2045ZM13 17C13.5303 17 13.9773 16.8958 14.3409 16.6875C14.7083 16.4792 14.9848 16.2102 15.1705 15.8807C15.3598 15.5511 15.4545 15.2045 15.4545 14.8409V13.6136C15.3977 13.6818 15.2727 13.7443 15.0795 13.8011C14.8902 13.8542 14.6705 13.9015 14.4205 13.9432C14.1742 13.9811 13.9337 14.0152 13.6989 14.0455C13.4678 14.072 13.2803 14.0947 13.1364 14.1136C12.7879 14.1591 12.4621 14.233 12.1591 14.3352C11.8598 14.4337 11.6174 14.5833 11.4318 14.7841C11.25 14.9811 11.1591 15.25 11.1591 15.5909C11.1591 16.0568 11.3314 16.4091 11.6761 16.6477C12.0246 16.8826 12.4659 17 13 17ZM19.4247 18V6.36364H20.7656V10.6591H20.8793C20.9777 10.5076 21.1141 10.3144 21.2884 10.0795C21.4664 9.84091 21.7202 9.62879 22.0497 9.44318C22.383 9.25379 22.8338 9.15909 23.402 9.15909C24.1368 9.15909 24.7846 9.3428 25.3452 9.71023C25.9058 10.0777 26.3433 10.5985 26.6577 11.2727C26.9721 11.947 27.1293 12.7424 27.1293 13.6591C27.1293 14.5833 26.9721 15.3845 26.6577 16.0625C26.3433 16.7367 25.9077 17.2595 25.3509 17.6307C24.794 17.9981 24.152 18.1818 23.4247 18.1818C22.8641 18.1818 22.4152 18.089 22.0781 17.9034C21.741 17.714 21.4815 17.5 21.2997 17.2614C21.1179 17.0189 20.9777 16.8182 20.8793 16.6591H20.7202V18H19.4247ZM20.7429 13.6364C20.7429 14.2955 20.8395 14.8769 21.0327 15.3807C21.2259 15.8807 21.508 16.2727 21.8793 16.5568C22.2505 16.8371 22.705 16.9773 23.2429 16.9773C23.8035 16.9773 24.2713 16.8295 24.6463 16.5341C25.0251 16.2348 25.3092 15.8333 25.4986 15.3295C25.6918 14.822 25.7884 14.2576 25.7884 13.6364C25.7884 13.0227 25.6937 12.4697 25.5043 11.9773C25.3187 11.4811 25.0365 11.089 24.6577 10.8011C24.2827 10.5095 23.8111 10.3636 23.2429 10.3636C22.6974 10.3636 22.2391 10.5019 21.8679 10.7784C21.4967 11.0511 21.2164 11.4337 21.027 11.9261C20.8376 12.4148 20.7429 12.9848 20.7429 13.6364ZM32.8395 18.1818C31.9986 18.1818 31.2732 17.9962 30.6634 17.625C30.0573 17.25 29.5895 16.7273 29.2599 16.0568C28.9342 15.3826 28.7713 14.5985 28.7713 13.7045C28.7713 12.8106 28.9342 12.0227 29.2599 11.3409C29.5895 10.6553 30.0478 10.1212 30.6349 9.73864C31.2259 9.35227 31.9152 9.15909 32.7031 9.15909C33.1577 9.15909 33.6065 9.23485 34.0497 9.38636C34.4929 9.53788 34.8963 9.78409 35.2599 10.125C35.6236 10.4621 35.9134 10.9091 36.1293 11.4659C36.3452 12.0227 36.4531 12.7083 36.4531 13.5227V14.0909H29.7259V12.9318H35.0895C35.0895 12.4394 34.991 12 34.794 11.6136C34.6009 11.2273 34.3243 10.9223 33.9645 10.6989C33.6084 10.4754 33.188 10.3636 32.7031 10.3636C32.169 10.3636 31.7069 10.4962 31.3168 10.7614C30.9304 11.0227 30.633 11.3636 30.4247 11.7841C30.2164 12.2045 30.1122 12.6553 30.1122 13.1364V13.9091C30.1122 14.5682 30.2259 15.1269 30.4531 15.5852C30.6842 16.0398 31.0043 16.3864 31.4134 16.625C31.8224 16.8598 32.2978 16.9773 32.8395 16.9773C33.1918 16.9773 33.5099 16.928 33.794 16.8295C34.0819 16.7273 34.33 16.5758 34.5384 16.375C34.7467 16.1705 34.9077 15.9167 35.0213 15.6136L36.3168 15.9773C36.1804 16.4167 35.9512 16.803 35.6293 17.1364C35.3073 17.4659 34.9096 17.7235 34.4361 17.9091C33.9626 18.0909 33.4304 18.1818 32.8395 18.1818ZM39.8338 6.36364V18H38.4929V6.36364H39.8338Z" fill="black"/>
<rect x="308" y="10" width="120" height="4" rx="1" fill="#E5E7EB"/>
<rect width="81" height="4" transform="translate(308 10)" fill="black"/>
<path d="M443.631 16.1193C443.131 16.1193 442.68 16.0199 442.28 15.821C441.879 15.6222 441.558 15.3494 441.317 15.0028C441.075 14.6562 440.943 14.2614 440.92 13.8182H441.943C441.983 14.2131 442.162 14.5398 442.48 14.7983C442.801 15.054 443.185 15.1818 443.631 15.1818C443.989 15.1818 444.307 15.098 444.585 14.9304C444.866 14.7628 445.087 14.5327 445.246 14.2401C445.408 13.9446 445.489 13.6108 445.489 13.2386C445.489 12.858 445.405 12.5185 445.237 12.2202C445.072 11.919 444.845 11.6818 444.555 11.5085C444.266 11.3352 443.935 11.2472 443.562 11.2443C443.295 11.2415 443.021 11.2827 442.74 11.3679C442.459 11.4503 442.227 11.5568 442.045 11.6875L441.057 11.5682L441.585 7.27273H446.119V8.21023H442.472L442.165 10.7841H442.216C442.395 10.642 442.619 10.5241 442.889 10.4304C443.159 10.3366 443.44 10.2898 443.733 10.2898C444.267 10.2898 444.743 10.4176 445.161 10.6733C445.581 10.9261 445.911 11.2727 446.149 11.7131C446.391 12.1534 446.511 12.6562 446.511 13.2216C446.511 13.7784 446.386 14.2756 446.136 14.7131C445.889 15.1477 445.548 15.4915 445.114 15.7443C444.679 15.9943 444.185 16.1193 443.631 16.1193ZM448.626 16.0682C448.416 16.0682 448.235 15.9929 448.085 15.8423C447.934 15.6918 447.859 15.5114 447.859 15.3011C447.859 15.0909 447.934 14.9105 448.085 14.7599C448.235 14.6094 448.416 14.5341 448.626 14.5341C448.836 14.5341 449.017 14.6094 449.167 14.7599C449.318 14.9105 449.393 15.0909 449.393 15.3011C449.393 15.4403 449.358 15.5682 449.287 15.6847C449.218 15.8011 449.126 15.8949 449.01 15.9659C448.896 16.0341 448.768 16.0682 448.626 16.0682ZM453.723 16.1193C453.081 16.1193 452.534 15.9446 452.082 15.5952C451.63 15.2429 451.285 14.733 451.047 14.0653C450.808 13.3949 450.689 12.5852 450.689 11.6364C450.689 10.6932 450.808 9.88778 451.047 9.22017C451.288 8.54972 451.635 8.03835 452.086 7.68608C452.541 7.33097 453.086 7.15341 453.723 7.15341C454.359 7.15341 454.903 7.33097 455.355 7.68608C455.809 8.03835 456.156 8.54972 456.395 9.22017C456.636 9.88778 456.757 10.6932 456.757 11.6364C456.757 12.5852 456.637 13.3949 456.399 14.0653C456.16 14.733 455.815 15.2429 455.363 15.5952C454.912 15.9446 454.365 16.1193 453.723 16.1193ZM453.723 15.1818C454.359 15.1818 454.853 14.875 455.206 14.2614C455.558 13.6477 455.734 12.7727 455.734 11.6364C455.734 10.8807 455.653 10.2372 455.491 9.70597C455.332 9.17472 455.102 8.76989 454.801 8.49148C454.502 8.21307 454.143 8.07386 453.723 8.07386C453.092 8.07386 452.599 8.38494 452.244 9.0071C451.889 9.62642 451.711 10.5028 451.711 11.6364C451.711 12.392 451.791 13.0341 451.95 13.5625C452.109 14.0909 452.338 14.4929 452.636 14.7685C452.937 15.044 453.299 15.1818 453.723 15.1818Z" fill="black"/>
</svg>
